<svg version="1.1" xmlns="http://www.w3.org/2000/svg"
     width="36" height="36"
     viewBox="0 0 36 36">
    <style type="text/css">
        .st0{fill:#D63030;}
        .st1{fill:#232323;}
        .st2{fill:#FFFFFF;}
    </style>
    <path class="st0" d="M18,35.2C9.7,24.9,5.6,17.5,5.6,12.9C5.6,6.1,11.2,0.5,18,0.5c6.8,0,12.4,5.6,12.4,12.4
	C30.4,17.5,26.3,24.9,18,35.2z"/>
    <path class="st1" d="M18,35.8C9.4,25.2,5.2,17.5,5.2,12.8C5.2,5.7,10.9,0,18,0c7.1,0,12.8,5.7,12.8,12.8
	C30.8,17.5,26.6,25.2,18,35.8z M28.2,12.8c0-5.6-4.6-10.2-10.2-10.2S7.8,7.2,7.8,12.8c0,3.6,3.5,10,10.2,18.9
	C24.8,22.8,28.2,16.4,28.2,12.8z"/>
    <path class="st2" d="M17.5,16.8c-0.2-0.2-0.2-0.4-0.2-0.6l-0.7-7.8V8.2c0-0.4,0.1-0.8,0.4-1c0.7-0.5,1.6-0.5,2.2,0.1
	c0.3,0.3,0.4,0.7,0.4,1.1l-0.7,7.8c0,0.2-0.1,0.4-0.2,0.6C18.2,17,17.8,17,17.5,16.8L17.5,16.8z M16.9,20.8
	c-0.3-0.3-0.4-0.7-0.4-1.1c0-0.4,0.1-0.8,0.4-1.1c0.3-0.3,0.7-0.4,1.1-0.4c0.4,0,0.8,0.1,1.1,0.4c0.3,0.3,0.4,0.7,0.4,1.1
	c0,0.4-0.1,0.8-0.4,1.1c-0.3,0.3-0.7,0.4-1.1,0.4C17.6,21.2,17.2,21.1,16.9,20.8L16.9,20.8z"/>
</svg>
