<?xml version="1.0" encoding="utf-8"?>
<!-- Generator: Adobe Illustrator 25.0.0, SVG Export Plug-In . SVG Version: 6.00 Build 0)  -->
<svg version="1.1" id="Calque_1" xmlns="http://www.w3.org/2000/svg" xmlns:xlink="http://www.w3.org/1999/xlink" x="0px" y="0px"
	 viewBox="0 0 36 36" style="enable-background:new 0 0 36 36;" xml:space="preserve">
<style type="text/css">
	.st0{fill:#26B21F;}
	.st1{fill:#232323;}
	.st2{fill-rule:evenodd;clip-rule:evenodd;fill:#FFFFFF;}
</style>
<path class="st0" d="M18,35.2C9.7,24.9,5.6,17.5,5.6,12.9C5.6,6.1,11.2,0.5,18,0.5s12.4,5.6,12.4,12.4C30.4,17.5,26.3,24.9,18,35.2z
	"/>
<path class="st1" d="M18,35.8C9.4,25.2,5.2,17.5,5.2,12.8C5.2,5.7,10.9,0,18,0s12.8,5.7,12.8,12.8C30.8,17.5,26.6,25.2,18,35.8z
	 M28.2,12.8c0-5.6-4.6-10.2-10.2-10.2S7.8,7.2,7.8,12.8c0,3.6,3.5,10,10.2,18.9C24.8,22.8,28.2,16.4,28.2,12.8z"/>
<g>
	<g>
		<polygon class="st2" points="13.5,21.3 14.4,21.3 14.4,7.1 13.5,7.1 		"/>
		<path class="st2" d="M17.7,12.3c1,0,2,0.5,2.1,0.5c0,0,0.9,0.4,1.7,0.4c0.5,0,1.1-0.2,1.4-0.3V8.7C22.5,8.9,22,9,21.5,9
			c-1.1,0-2.1-0.5-2.1-0.5c0,0-0.9-0.4-1.7-0.4c-0.6,0-1.1,0.2-1.4,0.3v4.2C16.7,12.4,17.2,12.3,17.7,12.3"/>
		<path class="st2" d="M21.5,14.2c-1.1,0-2.1-0.5-2.1-0.5c0,0-0.9-0.4-1.7-0.4c-0.7,0-1.4,0.3-1.7,0.4L15.4,14V7.8l0.3-0.1
			c0,0,1-0.5,2.1-0.5c1,0,2,0.5,2.1,0.5c0,0,0.9,0.4,1.7,0.4c0.7,0,1.4-0.3,1.7-0.4l0.7-0.3v6.2l-0.3,0.1
			C23.6,13.7,22.6,14.2,21.5,14.2"/>
	</g>
</g>
</svg>
