<?xml version="1.0" encoding="utf-8"?>
<!-- Generator: Adobe Illustrator 25.0.0, SVG Export Plug-In . SVG Version: 6.00 Build 0)  -->
<svg version="1.1" id="Calque_1" xmlns="http://www.w3.org/2000/svg" xmlns:xlink="http://www.w3.org/1999/xlink" x="0px" y="0px"
	 viewBox="0 0 36 36" style="enable-background:new 0 0 36 36;" xml:space="preserve">
<style type="text/css">
	.st0{fill:#128FFF;}
	.st1{fill:#232323;}
	.st2{fill:#FFFFFF;}
</style>
<path class="st0" d="M18,35.2C9.7,24.9,5.6,17.5,5.6,12.9C5.6,6.1,11.2,0.5,18,0.5c6.8,0,12.4,5.6,12.4,12.4
	C30.4,17.5,26.3,24.9,18,35.2z"/>
<path class="st1" d="M18,35.8C9.4,25.2,5.2,17.5,5.2,12.8C5.2,5.7,10.9,0,18,0c7.1,0,12.8,5.7,12.8,12.8
	C30.8,17.5,26.6,25.2,18,35.8z M28.2,12.8c0-5.6-4.6-10.2-10.2-10.2S7.8,7.2,7.8,12.8c0,3.6,3.5,10,10.2,18.9
	C24.8,22.8,28.2,16.4,28.2,12.8z"/>
<path class="st2" d="M15.6,18c0-0.2,0.1-0.5,0.2-0.8l1.2-4.4c0,0,0-0.1,0-0.1c0,0,0-0.1,0-0.1c0-0.3-0.1-0.4-0.2-0.5
	c-0.3-0.1-0.6-0.1-0.9-0.1v-0.5l1.6-0.2c0.7-0.1,1.1-0.1,1.4-0.2l0.8-0.2l-1.5,5.6c-0.1,0.5-0.2,0.8-0.2,1c-0.1,0.3-0.1,0.6-0.2,0.9
	c0,0.1,0,0.2,0.1,0.3c0.1,0,0.1,0.1,0.2,0.1c0.2,0,0.4-0.2,0.7-0.5c0.3-0.3,0.5-0.7,0.8-1l0.4,0.3c-0.4,0.7-0.9,1.3-1.4,1.9
	c-0.4,0.5-1.1,0.8-1.7,0.8c-0.3,0-0.7-0.1-0.9-0.3c-0.3-0.2-0.4-0.6-0.4-1C15.6,18.5,15.6,18.2,15.6,18z M20.1,6.9
	c0.5,0.5,0.5,1.3,0,1.8c-0.2,0.3-0.6,0.4-0.9,0.4c-0.3,0-0.7-0.1-0.9-0.4c-0.5-0.5-0.5-1.3,0-1.8c0.2-0.2,0.6-0.4,0.9-0.4
	C19.5,6.5,19.8,6.7,20.1,6.9z"/>
</svg>
