<svg version="1.1" xmlns="http://www.w3.org/2000/svg"
	 width="36" height="36"
	 viewBox="0 0 36 36">
<style type="text/css">
	.st0{fill:#E40166;}
	.st1{fill:#232323;}
	.st2{fill:#FFFFFF;}
</style>
<g>
	<path class="st0" d="M18,35.3C9.7,25,5.6,17.6,5.6,13C5.6,6.2,11.2,0.6,18,0.6S30.4,6.2,30.4,13C30.4,17.6,26.3,25,18,35.3z"/>
	<path class="st1" d="M18,35.9C9.4,25.3,5.2,17.6,5.2,12.9C5.2,5.8,11,0.1,18,0.1s12.8,5.8,12.8,12.8C30.8,17.6,26.6,25.3,18,35.9z
		 M28.2,12.9c0-5.6-4.6-10.2-10.2-10.2S7.8,7.2,7.8,12.9c0,3.6,3.5,10,10.2,18.9C24.8,22.9,28.2,16.5,28.2,12.9z M18,9
		c2.2,0,3.8,1.7,3.8,3.8s-1.7,3.8-3.8,3.8s-3.8-1.7-3.8-3.8S15.8,9,18,9z"/>
	<circle class="st2" cx="18" cy="12.9" r="3.8"/>
</g>
</svg>
