<svg version="1.1" xmlns="http://www.w3.org/2000/svg"
     width="36" height="36"
     viewBox="0 0 36 36">
    <style type="text/css">
        .st0{fill:#3366FF;}
        .st1{fill:#232323;}
        .st2{fill:#FFFFFF;}
    </style>
    <path class="st0" d="M18,35.2C9.7,24.9,5.6,17.5,5.6,12.9C5.6,6.1,11.2,0.5,18,0.5c6.8,0,12.4,5.6,12.4,12.4
	C30.4,17.5,26.3,24.9,18,35.2z"/>
    <path class="st1" d="M18,35.8C9.4,25.2,5.2,17.5,5.2,12.8C5.2,5.7,10.9,0,18,0c7.1,0,12.8,5.7,12.8,12.8
	C30.8,17.5,26.6,25.2,18,35.8z M28.2,12.8c0-5.6-4.6-10.2-10.2-10.2S7.8,7.2,7.8,12.8c0,3.6,3.5,10,10.2,18.9
	C24.8,22.8,28.2,16.4,28.2,12.8z"/>
    <path class="st2" d="M13.8,20.9c-0.2-0.3-0.4-0.6-0.3-1V8.2c0-0.3,0.1-0.7,0.3-0.9C14,7.1,14.3,7,14.7,7h4.8
	c1.2-0.1,2.5,0.3,3.4,1.1c0.8,0.8,1.3,2,1.2,3.2c0.1,1.2-0.4,2.3-1.2,3.2c-0.9,0.8-2.2,1.2-3.4,1.1H16v4.3c0,0.3-0.1,0.7-0.3,1
	c-0.2,0.2-0.6,0.4-0.9,0.4C14.4,21.2,14,21.1,13.8,20.9z M21.7,11.3c0-1.5-0.9-2.3-2.6-2.3H16v4.6h3.2
	C20.8,13.6,21.7,12.9,21.7,11.3L21.7,11.3z"/>
</svg>
